<svg width="94" height="33" viewBox="0 0 94 33" fill="none" xmlns="http://www.w3.org/2000/svg">
<path d="M0.5 16.5C0.5 20.7532 4.12175 24.7516 10.3205 27.7162C16.4827 30.6633 25.0309 32.5 34.5 32.5C43.9691 32.5 52.5173 30.6633 58.6795 27.7162C64.8783 24.7516 68.5 20.7532 68.5 16.5C68.5 12.2468 64.8783 8.24845 58.6795 5.28381C52.5173 2.33667 43.9691 0.5 34.5 0.5C25.0309 0.5 16.4827 2.33667 10.3205 5.28381C4.12175 8.24845 0.5 12.2468 0.5 16.5Z" stroke="#A9216B"/>
<path d="M43.6464 17.3536C43.4512 17.1583 43.4512 16.8417 43.6464 16.6464L46.8284 13.4645C47.0237 13.2692 47.3403 13.2692 47.5355 13.4645C47.7308 13.6597 47.7308 13.9763 47.5355 14.1716L44.7071 17L47.5355 19.8284C47.7308 20.0237 47.7308 20.3403 47.5355 20.5355C47.3403 20.7308 47.0237 20.7308 46.8284 20.5355L43.6464 17.3536ZM94 17.5H44V16.5H94V17.5Z" fill="#A9216B"/>
</svg>
