<svg width="94" height="33" viewBox="0 0 94 33" fill="none" xmlns="http://www.w3.org/2000/svg">
<path d="M93.5 16.5C93.5 20.7532 89.8783 24.7516 83.6795 27.7162C77.5173 30.6633 68.9691 32.5 59.5 32.5C50.0309 32.5 41.4827 30.6633 35.3205 27.7162C29.1217 24.7516 25.5 20.7532 25.5 16.5C25.5 12.2468 29.1217 8.24845 35.3205 5.28381C41.4827 2.33667 50.0309 0.5 59.5 0.5C68.9691 0.5 77.5173 2.33667 83.6795 5.28381C89.8783 8.24845 93.5 12.2468 93.5 16.5Z" stroke="#A9216B"/>
<path d="M50.3536 17.3536C50.5488 17.1583 50.5488 16.8417 50.3536 16.6464L47.1716 13.4645C46.9763 13.2692 46.6597 13.2692 46.4645 13.4645C46.2692 13.6597 46.2692 13.9763 46.4645 14.1716L49.2929 17L46.4645 19.8284C46.2692 20.0237 46.2692 20.3403 46.4645 20.5355C46.6597 20.7308 46.9763 20.7308 47.1716 20.5355L50.3536 17.3536ZM0 17.5H50V16.5H0V17.5Z" fill="#A9216B"/>
</svg>
